<?xml version="1.0" standalone="no"?>
<!DOCTYPE svg PUBLIC "-//W3C//DTD SVG 20010904//EN"
 "http://www.w3.org/TR/2001/REC-SVG-20010904/DTD/svg10.dtd">
<svg version="1.0" xmlns="http://www.w3.org/2000/svg"
 width="680.000000pt" height="680.000000pt" viewBox="0 0 680.000000 680.000000"
 preserveAspectRatio="xMidYMid meet">
<metadata>
Created by potrace 1.14, written by Peter Selinger 2001-2017
</metadata>
<g transform="translate(0.000000,680.000000) scale(0.100000,-0.100000)"
fill="#000000" stroke="none">
<path d="M1649 6796 c-2 -2 -31 -7 -64 -10 -193 -21 -325 -113 -417 -291 -68
-132 -124 -306 -263 -815 -21 -74 -39 -146 -42 -159 -2 -14 -6 -28 -9 -32 -2
-4 16 -1 40 6 24 7 79 18 122 25 44 6 93 13 109 15 87 13 421 17 1520 20 666
2 1221 5 1235 8 14 3 48 8 75 12 75 10 221 50 302 83 211 86 396 259 504 472
l31 62 30 -53 c78 -143 97 -277 57 -419 -58 -212 -227 -391 -484 -515 -88 -43
-273 -95 -385 -109 -278 -36 -435 -44 -856 -45 l-291 -1 -7 -47 c-9 -55 -5
-37 -50 -263 -19 -96 -39 -202 -45 -235 -6 -33 -13 -71 -16 -85 -3 -14 -8 -41
-11 -60 -3 -19 -9 -51 -14 -70 -5 -19 -11 -51 -14 -70 -3 -19 -14 -80 -25
-135 -11 -55 -27 -138 -36 -185 -9 -47 -27 -143 -41 -215 -24 -123 -60 -310
-70 -365 -3 -14 -40 -212 -84 -440 -44 -228 -81 -426 -84 -440 -3 -14 -10 -50
-16 -80 -6 -30 -13 -71 -16 -90 -3 -19 -7 -42 -9 -50 -4 -12 -27 -130 -51
-260 -2 -14 -9 -47 -14 -75 -6 -27 -12 -61 -15 -75 -3 -14 -9 -47 -15 -75 -5
-27 -12 -61 -14 -75 -3 -14 -23 -122 -45 -240 -50 -261 -59 -314 -67 -409 -10
-119 -6 -125 108 -216 55 -44 108 -87 118 -95 119 -103 559 -454 648 -518 208
-150 348 -199 489 -173 121 22 275 109 489 276 96 75 346 278 469 380 238 199
747 589 1065 817 113 80 216 155 230 165 14 11 77 55 140 98 123 84 158 109
315 218 384 269 507 381 578 527 l42 85 -1 125 c-2 176 -36 307 -214 810 -117
332 -142 406 -225 655 -136 406 -239 745 -345 1125 -28 102 -63 226 -77 275
-14 50 -26 97 -28 105 -5 28 -56 213 -107 390 -132 465 -225 611 -432 687 -23
8 -54 17 -71 20 -16 3 -48 8 -71 12 -96 18 -467 16 -859 -4 -439 -22 -1373
-22 -1830 1 -44 2 -132 6 -195 9 -147 7 -686 16 -691 11z m4164 -2210 c305
-152 271 -604 -53 -700 -47 -14 -184 -16 -1194 -16 -1236 0 -1213 -1 -1299 55
-165 106 -221 319 -130 499 45 88 148 168 243 187 19 4 562 6 1205 5 l1170 -1
58 -29z m-38 -841 c334 -118 331 -600 -5 -710 -52 -17 -121 -18 -1195 -18
-627 0 -1158 3 -1180 6 -144 21 -267 146 -296 300 -27 148 43 311 167 388 91
56 44 54 1302 53 1082 -1 1160 -2 1207 -19z m-53 -850 c75 -10 164 -61 214
-122 163 -199 88 -503 -145 -595 l-56 -22 -1155 -1 c-849 -1 -1169 2 -1206 10
-230 52 -350 325 -238 539 60 116 167 185 299 195 112 8 2222 5 2287 -4z"/>
<path d="M3397 4539 c-128 -29 -217 -137 -223 -272 -14 -318 392 -432 532
-149 37 73 40 180 7 253 -56 125 -189 196 -316 168z m213 -191 c0 -13 -182
-208 -194 -208 -5 0 -101 56 -115 67 -3 2 0 8 5 13 7 7 26 0 56 -19 l46 -29
92 94 c91 92 110 106 110 82z"/>
<path d="M3367 3676 c-204 -76 -263 -342 -108 -493 59 -58 106 -77 191 -77
121 -1 206 52 259 164 34 72 35 181 2 250 -26 57 -82 115 -135 142 -52 27
-157 34 -209 14z m243 -186 c0 -6 -43 -55 -96 -109 l-95 -99 -60 35 c-32 19
-59 39 -59 43 0 19 16 16 62 -12 l51 -31 86 91 c79 85 111 108 111 82z"/>
<path d="M3373 2816 c-125 -41 -204 -157 -199 -292 3 -84 28 -144 83 -200 53
-54 103 -76 184 -82 56 -4 75 -1 120 20 66 30 119 82 150 145 34 72 33 190 -3
259 -30 58 -94 119 -147 141 -50 21 -138 25 -188 9z m235 -190 c-2 -8 -45 -58
-96 -111 l-94 -95 -37 22 c-69 42 -86 56 -78 64 4 5 31 -4 59 -20 l51 -29 88
92 c85 87 114 108 107 77z"/>
<path d="M1437 5043 c-2 -1 -44 -5 -94 -7 -123 -7 -223 -17 -403 -41 -108 -14
-226 -39 -236 -49 -7 -6 -24 -51 -39 -101 -94 -315 -253 -793 -415 -1245 -162
-454 -218 -634 -238 -760 -13 -84 -7 -232 12 -287 59 -176 201 -304 776 -703
77 -53 545 -387 655 -468 25 -18 45 -29 46 -25 0 5 2 15 4 23 2 8 6 33 10 55
4 22 11 60 16 85 6 25 19 90 29 145 11 55 22 114 25 130 3 17 19 100 35 185
33 173 31 165 60 310 11 58 23 119 25 135 3 17 8 41 10 55 3 14 8 36 10 50 3
14 19 99 36 190 17 90 32 167 34 170 2 3 6 28 10 56 3 27 10 65 15 84 5 19 11
49 14 65 3 17 7 42 10 58 4 15 8 37 10 50 8 46 58 305 71 372 8 39 23 117 34
175 11 58 22 116 25 130 2 14 7 39 10 55 3 17 31 158 60 315 30 157 57 299 60
315 3 17 8 39 10 50 2 11 13 70 24 130 30 157 29 153 45 233 l14 74 -384 -3
c-211 -2 -385 -4 -386 -6z"/>
</g>
</svg>
